PathFileType	4	(X/Y/Z)	63_2_6_p0_0-271_filt_butterworth.trc
DataRate	CameraRate	NumFrames	NumMarkers	Units	OrigDataRate	OrigDataStartFrame	OrigNumFrames
48.0	48.0	5	27	m	48.0	33	271
Frame#	Time	RHip			RKnee			RAnkle			RBigToe			RSmallToe			RHeel			LHip			LKnee			LAnkle			LBigToe			LSmallToe			LHeel			Neck			Head			Nose			RShoulder			RElbow			RWrist			RThumb			RIndex			RPinky			LShoulder			LElbow			LWrist			LThumb			LIndex			LPinky			
		X1	Y1	Z1	X2	Y2	Z2	X3	Y3	Z3	X4	Y4	Z4	X5	Y5	Z5	X6	Y6	Z6	X7	Y7	Z7	X8	Y8	Z8	X9	Y9	Z9	X10	Y10	Z10	X11	Y11	Z11	X12	Y12	Z12	X13	Y13	Z13	X14	Y14	Z14	X15	Y15	Z15	X16	Y16	Z16	X17	Y17	Z17	X18	Y18	Z18	X19	Y19	Z19	X20	Y20	Z20	X21	Y21	Z21	X22	Y22	Z22	X23	Y23	Z23	X24	Y24	Z24	X25	Y25	Z25	X26	Y26	Z26	X27	Y27	Z27	
33	0.6875	0.30984467414357153	0.5837334562527337	0.7871435497546997	0.33681043510174186	0.735453989352276	1.16594018756663	0.35135017761212417	0.8957394151452704	1.5566154117121624	0.3123869863860532	0.7039086989305494	1.6218141125948033	0.38218241834187433	0.7506548858560409	1.6157654569952267	0.3294093639053418	0.9815212742710712	1.622505339470808	0.12238418172123978	0.5524182183047415	0.7998825272181853	0.14228498382789562	0.7335524456756867	1.183137933057713	0.17085307186452986	0.9084280228739453	1.561536849889982	0.14913145842039846	0.7079786577057202	1.6156668699020345	0.08977196724596093	0.7464395516606519	1.6015597202686092	0.19943845310813602	0.9976481627404594	1.6332316495516768	0.17451871980859102	0.4391856470777029	0.225506591853018	0.17886701244086395	0.29151966719308126	0.0019355169161795762	0.18177238701367987	0.28656712776476134	0.13294771870425004	0.32560191230147817	0.42051979494116876	0.3081736255032167	0.39380591159531925	0.5010044502585638	0.5518464131920575	0.2774011647037369	0.344307023217366	0.7137545358900976	0.2044361921707505	0.3399331784644958	0.7717197522060257	0.20727890188380146	0.3398146407317039	0.8017564358358369	0.21538866596116363	0.3294371659982844	0.8100446502658669	0.02612834777794888	0.41803558169280125	0.32729128577925914	0.04409395436877191	0.45013575321522464	0.60323409126648	0.15843378299547478	0.4055807081988342	0.7875145117524989	0.2180832103077453	0.3974809017441062	0.8324004456318344	0.2245218414302829	0.4153576247520043	0.876535439963674	0.20662667858810238	0.4225172982487684	0.8805319000481089
34	0.7083333333333334	0.306440993699652	0.5854035068735792	0.7848685950238504	0.3367768134904544	0.7316243749581406	1.1574579243681025	0.3525015212492503	0.8957738870583339	1.556104239714689	0.3131529290468936	0.704855632631365	1.6222686525755567	0.3823341729674548	0.7503127183983735	1.6157012965810378	0.33185467921426953	0.9805107148298733	1.6209221123268722	0.1237446819245456	0.548123234052563	0.7954930611796022	0.14244630074516537	0.7313359074642203	1.1798145019469972	0.17140432900276986	0.9083227055062777	1.5617267816314273	0.14859431105161688	0.7132206235537191	1.6173923787214344	0.08971834329636964	0.7465283527073698	1.6018870692734286	0.20097718472804735	1.0024949544378638	1.6335125230112562	0.17458865564083595	0.4460718434319745	0.225097185358203	0.1788836454421059	0.29142937679812914	0.00203198141896498	0.18620992250272864	0.29789740541135223	0.13176362755536875	0.3254198053153134	0.41958619590935264	0.30710009780923314	0.4006413903053118	0.4975885640279357	0.547774645233825	0.2919573705136531	0.3188988014223945	0.6856672767606984	0.21198275189457672	0.30746881381327473	0.7323813418702224	0.21653342183189106	0.3017596407545356	0.7594063157992832	0.23099952086388345	0.30188636266911795	0.7790482973664904	0.02637178553948159	0.41806515869671046	0.32966659617016625	0.04302342220330099	0.45616563805860766	0.6029900643436122	0.14755326737389315	0.40000044774122523	0.7973338140922863	0.21076612895640556	0.3996699359577548	0.8485952581891755	0.21443032856857355	0.41044938787188434	0.8875223378123342	0.19276964083210957	0.4208392845542498	0.892362398342567
35	0.7291666666666666	0.3051674208014245	0.5897639812686151	0.779152362763312	0.33693113534728103	0.7271379536823844	1.1476658605276813	0.35440511491074583	0.8956085787300943	1.5561846007676092	0.31253512508244974	0.7059193123078806	1.62266339798662	0.3822655596865238	0.7487675235321906	1.615270834879382	0.3347360227328824	0.9794010476923998	1.6187491882276126	0.12438834552976784	0.5429557906892365	0.7878412825926921	0.14279587136046937	0.7226276937014195	1.1709152034445363	0.1713601790044518	0.9080878418596883	1.5614991892615806	0.14811109168069153	0.7138501698924865	1.6177475563907384	0.0897494898062645	0.7467290920771574	1.6033015012883203	0.2028749230664414	1.0087228697328199	1.6346698976282685	0.17443887109016384	0.446912467249167	0.22403367305396088	0.17895763085660032	0.2912882135336708	0.002132800870474714	0.19066418216224051	0.3070387905470217	0.13140059773960172	0.3249216615866784	0.4197711281598751	0.30531247837267605	0.40736707445588344	0.49038815573447286	0.5436443982182336	0.30934055929505444	0.28735662463825007	0.6506722753057476	0.21824588128557326	0.2724087098920278	0.6843445795595776	0.22396539739699545	0.26219640803227673	0.7074325348212201	0.24331173356429542	0.27183541742611306	0.7404722427919193	0.02671171297375742	0.4185827957174998	0.33184765709199954	0.04118133769110657	0.45983995512990433	0.602834936371553	0.1354383832794123	0.38856028495257006	0.8051098343961848	0.20258085235423168	0.40108334229684284	0.86777568139564	0.20320990715751827	0.40706156430606233	0.8990411294828868	0.175575849887748	0.4148066633543318	0.9057597643068317
36	0.75	0.30631839203990857	0.593978967133561	0.7728916627452451	0.33768779217816836	0.7248794123195361	1.1425509663462254	0.35593875283792964	0.8952473090947553	1.5561607559565602	0.3111816413506579	0.7067292053584242	1.622777143697109	0.380917397591946	0.745989161369845	1.6143932615111583	0.3359876222113276	0.9790282226638355	1.6174327100133603	0.12443098321215773	0.5402009251445353	0.7823854395659633	0.14374560992107815	0.7119081238045453	1.1616729657401526	0.17116930089542484	0.9079028427046261	1.5613815143771221	0.1479088289528438	0.7081938975460176	1.6160976000395961	0.08989183226601785	0.7468457439354824	1.605339530272873	0.2040620831370252	1.0126426192446776	1.636332450146137	0.17424931182917608	0.44556752835123037	0.22251160495541863	0.17906482944181212	0.2921324402794513	0.002012817593870912	0.19368239037866347	0.31108525499214496	0.13157589400997038	0.32377783960149115	0.42317023105983015	0.30247580072031854	0.41371660948168226	0.4872449674700968	0.5374482784121675	0.3188581329808997	0.26279771348512726	0.6175370623703215	0.22376418016784974	0.23497722676933636	0.6393547994329353	0.23205276738083336	0.21896247280133013	0.6620970774990877	0.25099291470408447	0.2314503412258857	0.7023578492596565	0.02689993261338505	0.41959803328847994	0.3328189528324579	0.03949585713909583	0.4607252772974529	0.6049002656642541	0.12280813978944681	0.3823102293190742	0.8123622942051512	0.19447899280349354	0.4032446221019348	0.8822844440141847	0.19328895536346147	0.40723380513694835	0.9116647666395531	0.15700243415673112	0.4047882376314684	0.9195832695488095
37	0.7708333333333334	0.3095224764349363	0.5990783541621658	0.770923973821513	0.33926724130888586	0.7259484458710712	1.1438324995735751	0.3565123619596725	0.8947815639751878	1.555512844187517	0.3101666601987957	0.7073159845524433	1.6227597259704956	0.37829523649061936	0.7458950160081111	1.6142540859085925	0.3357926688409769	0.9791571171690042	1.6171822618433684	0.12535542638673064	0.5403562571961001	0.7834778491893148	0.1446201422522387	0.705511413702008	1.1559684587751144	0.17106268890392037	0.9078772545017617	1.5614278227569838	0.14770091604929908	0.697008265253722	1.6126135685774592	0.09002673269806244	0.7465507240564883	1.6067248879190745	0.20428492154425634	1.0133070424432322	1.6374270265043451	0.17403147744107547	0.4448577182829242	0.22069199009803106	0.17890441831356396	0.2954346265697345	0.0014132616349142317	0.1947503466594942	0.31119066813879015	0.13187790642748576	0.3222437415649143	0.42822044541918247	0.2992513704293837	0.41847177205096114	0.49159450978274194	0.527775300111564	0.31963999523890824	0.2511993573013437	0.589750184872425	0.2306929572102837	0.19541940221637982	0.6034942441979388	0.23996220281064023	0.17864301662286375	0.6263429448242643	0.2587906548685986	0.19373203824993526	0.6677908082697531	0.026926690667189213	0.4209953696271186	0.33382189066447676	0.03793333143944159	0.46116780912180033	0.6099105608512189	0.10957356509144535	0.3873172518705803	0.8208249865546203	0.1887034756531552	0.40907684409332895	0.8917927973557724	0.18521684310927392	0.40727547835276834	0.9247301034843876	0.13601126568473898	0.3996734156889195	0.9310699136965229
